<mxfile host="app.diagrams.net" modified="2023-06-24T14:42:23.047Z" agent="Mozilla/5.0 (X11; Linux x86_64) AppleWebKit/537.36 (KHTML, like Gecko) Chrome/111.0.0.0 Safari/537.36" version="21.5.0" etag="mKqla5zIh_ST6Sun-46Y" type="github">
  <diagram name="第 1 页" id="I8mjdk0_7Y23vOTqBQBT">
    <mxGraphModel>
      <root>
        <mxCell id="0" />
        <mxCell id="1" parent="0" />
      </root>
    </mxGraphModel>
  </diagram>
</mxfile>
